<?xml version="1.0" encoding="UTF-8" standalone="no"?>
<svg
   xmlns:dc="http://purl.org/dc/elements/1.1/"
   xmlns:cc="http://creativecommons.org/ns#"
   xmlns:rdf="http://www.w3.org/1999/02/22-rdf-syntax-ns#"
   xmlns:svg="http://www.w3.org/2000/svg"
   xmlns="http://www.w3.org/2000/svg"
   xmlns:sodipodi="http://sodipodi.sourceforge.net/DTD/sodipodi-0.dtd"
   xmlns:inkscape="http://www.inkscape.org/namespaces/inkscape"
   viewBox="0 0 1333.3333 1333.3333"
   height="1333.3333"
   width="1333.3333"
   xml:space="preserve"
   id="svg2"
   version="1.1"
   inkscape:version="0.91 r13725"
   sodipodi:docname="filename.svg"><sodipodi:namedview
     pagecolor="#ff64ff"
     bordercolor="#666666"
     borderopacity="1"
     objecttolerance="10"
     gridtolerance="10"
     guidetolerance="10"
     inkscape:pageopacity="1"
     inkscape:pageshadow="2"
     inkscape:window-width="1094"
     inkscape:window-height="764"
     id="namedview12"
     showgrid="false"
     inkscape:zoom="0.17700001"
     inkscape:cx="-152.54236"
     inkscape:cy="666.66663"
     inkscape:window-x="243"
     inkscape:window-y="334"
     inkscape:window-maximized="0"
     inkscape:current-layer="g20" /><metadata
     id="metadata8"><rdf:RDF><cc:Work
         rdf:about=""><dc:format>image/svg+xml</dc:format><dc:type
           rdf:resource="http://purl.org/dc/dcmitype/StillImage" /><dc:title></dc:title></cc:Work></rdf:RDF></metadata><defs
     id="defs6"><clipPath
       id="clipPath18"
       clipPathUnits="userSpaceOnUse"><path
         id="path16"
         d="M 0,1000 H 1000 V 0 H 0 Z" /></clipPath></defs><g
     transform="matrix(1.3333333,0,0,-1.3333333,0,1333.3333)"
     id="g10"><g
       id="g12"><g
         clip-path="url(#clipPath18)"
         id="g14"><g
           transform="translate(759.5059,475.3828)"
           id="g20"><path
             id="path22"
             style="fill:#000000;fill-opacity:1;fill-rule:nonzero;stroke:none"
             d="m 0,0 c 8.271,7.921 16.68,16.01 25.187,24.334 19.185,18.778 36.594,34.695 51.937,48.706 68.278,62.396 113.37,103.596 113.37,225.514 0,107.458 -95.054,198.225 -207.556,198.225 -109.266,0 -198.207,-88.919 -198.207,-198.225 h 104.724 c 0,51.572 41.945,93.509 93.483,93.509 53.834,0 102.839,-44.559 102.839,-93.509 0,-75.752 -15.218,-89.669 -79.289,-148.195 C -9.491,135.766 -27.589,119.22 -48.068,99.146 -56.327,91.087 -64.521,83.215 -72.519,75.515 -130.704,19.664 -190.51,-37.799 -208.533,-121.561 h -101.498 v 321.63 h -104.712 v -321.63 h -154.04 l 91.997,306.59 -100.303,30.094 -132.417,-441.395 h 294.763 v -221.273 h 104.712 v 221.273 h 96.013 12.44 384.59 v 104.711 H -99.505 C -83.779,-82.064 -49.52,-47.553 0,0" /></g></g></g></g></svg>